# xmcd CD database file
# Copyright (C) 1995-1998 Ti Kan
#
# Track frame offsets:
#	150
#	13015
#	30299
#	42663
#	55630
#	71811
#	84667
#	100139
#	115270
#	128057
#	143334
#	160193
#	176653
#	191898
#	209210
#	222401
#	237671
#	252465
#	265811
#	275602
#
# Disc length: 3904 seconds
#
# Revision: 8
# Processed by: cddbd v1.5.2PL0 Copyright (c) Steve Scherf et al.
# Submitted via: CDex 1.40Beta3
#
DISCID=310f3e14
DTITLE=Rio Negro e Solimões - As 20 mais
DYEAR=2005
DGENRE=Country
TTITLE0=Balançou Sacudiu
TTITLE1=Vai Começar de Novo
TTITLE2=Rodopiou
TTITLE3=Clube do Batidão
TTITLE4=Amor Desencontrado
TTITLE5=Tô Doidão
TTITLE6=Casa,Comida
TTITLE7=Movido Pela Emoção
TTITLE8=Bate o Pé
TTITLE9=Sozinho Outra vez
TTITLE10=Ela Foi Embora
TTITLE11=Tô por Ai
TTITLE12=Deus me Livre
TTITLE13=No fim desta estrada
TTITLE14=Na sola da bota
TTITLE15=Tô mal
TTITLE16=Só alegria
TTITLE17=Apuros
TTITLE18=Tá Mentindo
TTITLE19=Floresce
EXTD=YEAR: 2005 ID3G:   2
EXTT0=
EXTT1=
EXTT2=
EXTT3=
EXTT4=
EXTT5=
EXTT6=
EXTT7=
EXTT8=
EXTT9=
EXTT10=
EXTT11=
EXTT12=
EXTT13=
EXTT14=
EXTT15=
EXTT16=
EXTT17=
EXTT18=
EXTT19=
PLAYORDER=
